# xmcd
#
# Track frame offsets:
#	150
#	10638
#	20811
#	29609
#	38453
#	48223
#	57766
#	67756
#	79982
#	90365
#	101599
#	112705
#	124424
#	132107
#	141815
#	155679
#	167189
#	175120
#	184590
#	195542
#	205533
#	218885
#	232097
#	243739
#	254492
#	264863
#	278778
#
# Disc length: 3867
#
# Revision: 1
# Processed by: cddbd v1.5.1PL0 Copyright (c) Steve Scherf et al.
# Submitted via: EasyCDDAExtractor 4.5.2.1
# Normalized: r0:TDELIM( - )
#
DISCID=6d0f191b
DTITLE=Various Artist - Collection Treasures Volume 2
DYEAR=1900
DGENRE=Blues
TTITLE0=El Domingos - Made In Heaven
TTITLE1=Little Butchie Saunders and group - Don't Do Me Wrong
TTITLE2=Reflections - Maybe Tomorrow
TTITLE3=Tramps - You're A Square
TTITLE4=Statlers - Gone
TTITLE5=Statlers - Vicky
TTITLE6=Viceroys - My Heart
TTITLE7=Flannels - So Shy
TTITLE8=Street Singers - Tonight Was Like A Dream
TTITLE9=Titans - Don't You Just Know It
TTITLE10=Huey Smith and The Clowns - Don't You Just Know It
TTITLE11=Treble Chords - My Little Girl
TTITLE12=Ronnie Jones and The Classmates - My Baby Cries
TTITLE13=Medallions - Meet Me Tonight
TTITLE14=Medallions - How
TTITLE15=O'Jays - Lonely Drifter
TTITLE16=Savoys - Vision Of Love
TTITLE17=Savoys - Oh Gee Oh Gosh
TTITLE18=El Pollos - School Girl
TTITLE19=Johnny Flamingo and group - Is It A Dream
TTITLE20=Miracles - (You Can) Depend On Me
TTITLE21=Miracles - I Can't Believe
TTITLE22=Miracles - I Need A Change
TTITLE23=Kingsmen - Darlin' Why
TTITLE24=Mixers - Love and Kisses
TTITLE25=Kingsmen - Pistol Packin' Mama
TTITLE26=Gay Tunes - Got You On My Mind
EXTD=
EXTT0=
EXTT1=
EXTT2=
EXTT3=
EXTT4=
EXTT5=
EXTT6=
EXTT7=
EXTT8=
EXTT9=
EXTT10=
EXTT11=
EXTT12=
EXTT13=
EXTT14=
EXTT15=
EXTT16=
EXTT17=
EXTT18=
EXTT19=
EXTT20=
EXTT21=
EXTT22=
EXTT23=
EXTT24=
EXTT25=
EXTT26=
PLAYORDER=
